<svg xmlns="http://www.w3.org/2000/svg" width="2006" height="1216" viewBox="0 0 2006 1216" version="1.1">
	<path d="M 0.246 133.554 L 0.500 267.129 63.826 300.314 L 127.151 333.500 260.579 333.243 L 394.007 332.986 393.754 199.945 L 393.500 66.904 330.500 33.702 L 267.500 0.500 133.746 0.239 L -0.007 -0.022 0.246 133.554 M 558 33.370 L 494.500 66.683 494.246 199.841 L 493.993 333 627.746 332.979 L 761.500 332.957 824 300.195 L 886.500 267.433 886.754 133.716 L 887.007 0 754.254 0.028 L 621.500 0.057 558 33.370 M 1528.750 8.747 L 1488 9.022 1488 38.761 L 1487.999 68.500 1531.835 68.177 L 1575.671 67.854 1576.334 122.677 C 1576.699 152.830, 1576.998 214.063, 1576.999 258.750 L 1577 340 1610.500 340 L 1644 340 1644 204 L 1644 68 1688.015 68 L 1732.030 68 1731.765 38.250 L 1731.500 8.500 1650.500 8.486 C 1605.950 8.478, 1551.162 8.595, 1528.750 8.747 M 1809.809 8.750 C 1809.639 9.162, 1809.635 83.863, 1809.799 174.750 L 1810.098 340 1843.799 339.999 C 1862.335 339.999, 1904.844 339.700, 1938.265 339.335 L 1999.029 338.672 1998.765 309.246 L 1998.500 279.819 1938.412 279.952 L 1878.323 280.085 1877.662 252.880 C 1877.298 237.917, 1877 176.698, 1877 116.838 L 1877 8 1843.559 8 C 1825.166 8, 1809.979 8.338, 1809.809 8.750 M 1152.247 174.737 L 1152.500 340.500 1186.250 340.763 L 1220 341.027 1220 272.013 L 1220 203 1280.841 203 L 1341.681 203 1342.338 224.750 C 1342.700 236.713, 1342.996 267.538, 1342.998 293.250 L 1343 340 1376.500 340 L 1410 340 1410 174.500 L 1410 9 1376 9 L 1342 9 1342 76.500 L 1342 144 1281.007 144 L 1220.014 144 1219.757 76.750 L 1219.500 9.500 1185.747 9.237 L 1151.994 8.973 1152.247 174.737 M 63 467.046 L 0.500 499.903 0.246 633.451 L -0.007 767 132.945 767 L 265.896 767 329.698 733.564 L 393.500 700.128 393.754 567.064 L 394.007 434 259.754 434.095 L 125.500 434.190 63 467.046 M 494.246 567.159 L 494.500 700.317 558 733.630 L 621.500 766.943 754.254 766.972 L 887.007 767 886.754 633.284 L 886.500 499.567 824 466.805 L 761.500 434.043 627.746 434.021 L 493.993 434 494.246 567.159 M 1493.746 521.743 L 1485.992 522.084 1486.246 645.792 L 1486.500 769.500 1500.250 769.778 L 1514 770.056 1514 645.528 L 1514 521 1507.750 521.201 C 1504.313 521.312, 1498.011 521.556, 1493.746 521.743 M 1598.667 521.667 C 1597.470 522.863, 1597.878 768.807, 1599.078 769.548 C 1599.671 769.915, 1633.871 769.881, 1675.078 769.473 L 1750 768.730 1750 756.865 L 1750 745 1688.631 745 L 1627.262 745 1626.642 741.250 C 1626.301 739.188, 1626.017 719.163, 1626.011 696.750 L 1626 656 1677 656 L 1728 656 1728 643.500 L 1728 631 1677 631 L 1626 631 1626 588.500 L 1626 546 1687.500 546 L 1749 546 1749 533.500 L 1749 521 1674.167 521 C 1633.008 521, 1599.033 521.300, 1598.667 521.667 M 1818 644.983 L 1818 769 1832 769 L 1846 769 1846 657.500 L 1846 546 1849.272 546 L 1852.543 546 1900.677 657.250 L 1948.810 768.500 1974.405 768.767 L 2000 769.034 2000 645.017 L 2000 521 1986 521 L 1972 521 1972 632.560 L 1972 744.121 1968.383 743.810 L 1964.767 743.500 1917.442 632.500 L 1870.117 521.500 1844.059 521.233 L 1818 520.967 1818 644.983 M 1128 523.823 C 1128 524.856, 1139.250 580.483, 1153 647.440 C 1166.750 714.397, 1178 769.364, 1178 769.590 C 1178 769.815, 1189.445 770, 1203.433 770 C 1226.783 770, 1228.909 769.857, 1229.401 768.250 C 1229.695 767.288, 1239.874 721.275, 1252.019 666 C 1264.165 610.725, 1274.435 564.192, 1274.841 562.592 C 1275.399 560.396, 1281.316 585.420, 1299.026 664.859 L 1322.472 770.033 1347.976 769.766 L 1373.480 769.500 1397.671 649 C 1410.976 582.725, 1422.138 527.038, 1422.476 525.250 L 1423.091 522 1408.730 522 L 1394.369 522 1373.471 633.500 L 1352.573 745 1347.533 745 L 1342.494 745 1318.553 640.750 C 1305.386 583.413, 1293.978 533.688, 1293.201 530.250 L 1291.790 524 1275.503 524 C 1259.446 524, 1259.209 524.032, 1258.656 526.250 C 1258.348 527.487, 1247.254 576.425, 1234.003 635 C 1220.753 693.575, 1209.676 742.288, 1209.388 743.250 C 1208.982 744.609, 1207.764 745, 1203.933 745 C 1201.220 745, 1198.979 744.888, 1198.954 744.750 C 1198.929 744.612, 1189.366 694.550, 1177.704 633.500 L 1156.500 522.500 1142.250 522.223 C 1128.877 521.962, 1128 522.061, 1128 523.823 M 1716 961.045 C 1679.072 963.779, 1657.356 979.175, 1650.337 1007.600 C 1647.989 1017.109, 1647.998 1039.064, 1650.354 1048 C 1653.140 1058.567, 1657.427 1066.613, 1663.353 1072.399 C 1673.785 1082.584, 1696.084 1091.762, 1725.500 1097.976 C 1766.239 1106.583, 1777.443 1114.219, 1780.086 1135.182 C 1782.568 1154.870, 1775.522 1173.828, 1762.626 1182.163 C 1747.143 1192.171, 1726.660 1193.264, 1672.663 1186.964 C 1663.403 1185.884, 1655.268 1185, 1654.586 1185 C 1653.749 1185, 1652.934 1188.605, 1652.081 1196.075 C 1651.385 1202.166, 1651.038 1207.371, 1651.309 1207.643 C 1651.964 1208.297, 1675.208 1211.697, 1691.500 1213.522 C 1742.685 1219.256, 1770.528 1214.282, 1789.039 1196.098 C 1800.169 1185.166, 1805.876 1171.381, 1808.027 1150.237 C 1810.466 1126.260, 1805.502 1107.413, 1793.861 1096.451 C 1783.192 1086.405, 1769.532 1080.607, 1738.744 1073.060 C 1695.708 1062.510, 1686.095 1057.907, 1680.158 1045.005 C 1676.835 1037.784, 1675.901 1021.294, 1678.340 1012.904 C 1682.949 997.046, 1695.928 988.414, 1718.917 985.913 C 1730.191 984.686, 1748.738 985.639, 1780.830 989.094 C 1791.461 990.238, 1800.304 991.023, 1800.481 990.837 C 1800.918 990.379, 1802.994 973.136, 1802.997 969.933 C 1803 967.368, 1802.993 967.366, 1786.250 965.156 C 1755.853 961.144, 1732.845 959.798, 1716 961.045 M 1826.672 964.661 C 1826.302 965.031, 1826 970.658, 1826 977.167 L 1826 989 1863.837 989 L 1901.674 989 1902.336 1033.250 C 1902.700 1057.588, 1902.998 1107.763, 1902.999 1144.750 L 1903 1212 1916.500 1212 L 1930 1212 1930 1100.500 L 1930 989 1968.031 989 L 2006.062 989 2005.781 976.750 L 2005.500 964.500 1916.422 964.245 C 1867.429 964.104, 1827.042 964.292, 1826.672 964.661 M 1128.042 965.750 C 1128.064 966.163, 1139.465 1021.850, 1153.377 1089.500 L 1178.671 1212.500 1204.232 1212.767 L 1229.793 1213.033 1230.900 1208.267 C 1231.509 1205.645, 1241.682 1159.400, 1253.506 1105.500 C 1265.330 1051.600, 1275.341 1006.715, 1275.752 1005.756 C 1276.217 1004.670, 1284.777 1041.127, 1298.409 1102.256 C 1310.458 1156.290, 1320.958 1203.313, 1321.740 1206.750 L 1323.163 1213 1348.563 1213 L 1373.962 1213 1374.486 1210.750 C 1374.774 1209.513, 1385.800 1154.725, 1398.987 1089 C 1412.175 1023.275, 1423.206 968.487, 1423.502 967.250 L 1424.038 965 1409.564 965 L 1395.091 965 1394.478 968.250 C 1394.142 970.038, 1384.749 1020.100, 1373.606 1079.500 L 1353.347 1187.500 1348.257 1187.799 L 1343.167 1188.099 1341.018 1178.799 C 1339.837 1173.685, 1328.430 1124.050, 1315.671 1068.500 L 1292.472 967.500 1276.281 967.225 L 1260.090 966.951 1259.099 970.725 C 1258.553 972.801, 1247.258 1022.425, 1233.998 1081 C 1220.738 1139.575, 1209.525 1187.866, 1209.080 1188.314 C 1208.635 1188.762, 1206.323 1188.987, 1203.942 1188.814 L 1199.612 1188.500 1178.337 1077 C 1166.636 1015.675, 1157.048 965.388, 1157.031 965.250 C 1156.950 964.597, 1128.005 965.096, 1128.042 965.750 M 1461 1001.835 C 1461 1022.094, 1461.299 1077.894, 1461.665 1125.835 L 1462.330 1213 1537.665 1213 L 1613 1213 1613 1200.500 L 1613 1188 1551.500 1188 L 1490 1188 1490 1143.500 L 1490 1099 1540.500 1099 L 1591 1099 1591 1087 L 1591 1075 1540.657 1075 L 1490.315 1075 1489.660 1057.750 C 1489.301 1048.263, 1489.005 1029.138, 1489.003 1015.250 L 1489 990 1515.750 989.998 C 1530.463 989.998, 1558.362 989.700, 1577.750 989.336 L 1613 988.676 1613 976.838 L 1613 965 1537 965 L 1461 965 1461 1001.835" stroke="none" fill="black" fill-rule="evenodd"/>
</svg>